<svg width="360" height="360" viewBox="0 0 360 360" fill="none" xmlns="http://www.w3.org/2000/svg">
<path d="M180.549 94.957C254.666 37.4183 216.627 0 216.627 0C222.288 59.4831 155.386 73.5281 137.453 114.403C125.216 142.295 145.832 166.718 180.525 197.498C177.458 190.681 172.727 184.057 167.939 177.35C151.606 154.477 134.591 130.648 180.549 94.957Z" fill="#E76F00"/>
<path d="M192.382 210.116C192.382 210.116 214.68 192.126 197.021 172.133C137.162 104.308 262.49 73.5281 262.49 73.5281C185.972 110.391 197.395 132.271 216.628 158.852C237.22 187.355 192.382 210.116 192.382 210.116Z" fill="#E76F00"/>
<path d="M258.042 263.763C326.726 228.665 294.969 194.937 272.803 199.481C267.37 200.593 264.948 201.557 264.948 201.557C264.948 201.557 266.965 198.45 270.817 197.105C314.668 181.945 348.393 241.818 256.661 265.532C256.661 265.533 257.724 264.598 258.042 263.763Z" fill="#5382A1"/>
<path d="M115.122 219.34C72.1476 213.697 138.684 198.157 138.684 198.157C138.684 198.157 112.845 196.443 81.0666 211.549C43.4899 229.423 174.016 237.552 241.582 220.078C248.607 215.361 258.316 211.272 258.316 211.272C258.316 211.272 230.667 216.129 203.131 218.413C169.438 221.189 133.267 221.729 115.122 219.34Z" fill="#5382A1"/>
<path d="M131.471 252.853C107.508 250.415 123.199 238.994 123.199 238.994C61.1886 259.233 157.7 282.184 244.349 257.268C235.138 254.074 229.281 248.235 229.281 248.235C186.934 256.254 162.461 255.997 131.471 252.853Z" fill="#5382A1"/>
<path d="M141.913 289.115C117.967 286.408 131.957 278.408 131.957 278.408C75.6668 293.875 166.195 325.828 237.862 295.624C226.124 291.136 217.719 285.953 217.719 285.953C185.75 291.903 170.923 292.37 141.913 289.115Z" fill="#5382A1"/>
<path d="M291.81 307.561C291.81 307.561 302.163 315.95 280.408 322.439C239.041 334.762 108.235 338.483 71.8981 322.93C58.8357 317.342 83.3313 309.587 91.0367 307.96C99.0726 306.246 103.665 306.566 103.665 306.566C89.1382 296.502 9.77049 326.325 63.35 334.866C209.469 358.168 329.711 324.373 291.81 307.561Z" fill="#5382A1"/>
<path d="M315 325.889C312.602 356.565 211.362 363.018 145.433 358.868C102.424 356.156 93.8039 349.378 93.6777 349.278C134.841 355.952 204.243 357.167 260.514 346.754C310.391 337.518 315 325.889 315 325.889Z" fill="#5382A1"/>
</svg>
